<svg width="370" height="44" viewBox="0 0 370 44" fill="none" xmlns="http://www.w3.org/2000/svg">
<g clip-path="url(#clip0_134_80)">
<path fill-rule="evenodd" clip-rule="evenodd" d="M333.323 39.2213V30.9943C333.323 30.5601 333.267 30.0163 333.202 29.3723C333.088 28.7249 333.034 28.188 332.91 27.8281C332.134 24.7806 330.099 22.9295 326.82 22.2086C328.484 21.8543 329.984 21.0113 331.112 19.8658C332.189 18.809 332.971 17.0831 333.434 14.7447C333.861 12.4806 333.79 10.1475 333.202 7.703C332.846 6.26687 332.134 5.00999 331.112 3.75535C330.099 2.51907 328.918 1.54881 327.607 1.00946C326.29 0.477862 324.427 0.171997 322.037 0.171997H304.889L304.783 43.9449H314.93L314.989 25.7975H319.353C321.363 25.9673 322.636 26.9375 323.113 28.7249C323.286 29.3723 323.357 30.0811 323.286 30.8183L323.399 38.1657C323.399 39.2214 323.481 40.2436 323.526 41.0758C323.526 41.9672 323.584 42.5759 323.703 42.8687L324.071 43.9449H334.101L333.79 42.8687C333.567 41.7393 333.386 40.5506 333.323 39.2213ZM322.813 16.6C322.037 17.9735 320.917 18.7472 319.353 18.9904C319.067 18.9904 318.739 19.0553 318.449 19.0553H314.989L314.93 7.57772H318.449C318.739 7.57772 319.067 7.57772 319.353 7.62532C321.62 7.83158 322.945 8.89059 323.399 10.622C324.019 13.0166 323.833 14.9824 322.813 16.6Z" fill="#003366"/>
<path fill-rule="evenodd" clip-rule="evenodd" d="M285.437 0.173096H279.647L268.108 43.946H278.549L280.654 35.4067H289.712L291.763 43.946H302.233L290.737 0.173096H285.437ZM285.072 27.7719L282.146 27.827L285.072 7.62088L287.938 27.7123L285.072 27.7719Z" fill="#003366"/>
<path fill-rule="evenodd" clip-rule="evenodd" d="M357.791 0.173096H346.708L335.169 43.946H345.621L347.72 35.4067H356.791L358.885 43.946H369.272L357.791 0.173096ZM352.131 27.7719L349.211 27.827L352.131 7.62088L355.008 27.7123L352.131 27.7719Z" fill="#003366"/>
<path fill-rule="evenodd" clip-rule="evenodd" d="M116.505 0.173096H110.728L99.1931 43.946H109.656L111.737 35.4067H120.823L122.924 43.946H133.303L121.831 0.173096H116.505ZM116.155 27.7719L113.239 27.827L116.155 7.62088L119.032 27.7123L116.155 27.7719Z" fill="#003366"/>
<path fill-rule="evenodd" clip-rule="evenodd" d="M264.646 0.173096H253.841L243.984 18.1508L244.107 0.173096H233.949L233.791 43.9405H243.984V31.2829L246.633 27.1602L254.857 43.9405H266.197L253.029 19.0553L264.646 0.173096Z" fill="#003366"/>
<path fill-rule="evenodd" clip-rule="evenodd" d="M219.038 28.3641L210.021 0.174194H198.86L198.736 43.9449H208.225L208.171 15.6448L217.296 43.9449H228.4L228.459 0.174194H218.973L219.038 28.3641Z" fill="#003366"/>
<path fill-rule="evenodd" clip-rule="evenodd" d="M154.585 0.0617676L149.029 33.9661L143.48 0.0617676H132.734L142.475 43.8347H155.605L165.396 0.0617676H154.585Z" fill="#003366"/>
<path fill-rule="evenodd" clip-rule="evenodd" d="M94.4556 39.162V30.8679C94.4556 30.4443 94.3972 29.9127 94.2739 29.2492C94.2135 28.6041 94.1659 28.0691 94.0512 27.7104C93.2647 24.6002 91.2394 22.7436 87.8829 22.0973C89.6897 21.6575 91.1011 20.9 92.1731 19.7664C93.3165 18.6771 94.1659 16.9621 94.5786 14.6398C94.998 12.3595 94.9354 9.96487 94.3323 7.57773C93.9908 6.1458 93.2647 4.83716 92.251 3.57919C91.1812 2.39271 90.0356 1.50233 88.7172 0.891721C87.4097 0.369641 85.5703 0.0606689 83.1734 0.0606689H66.0408L65.9283 43.8336H76.0563L76.1253 25.6765H80.4869C82.5726 25.8666 83.8283 26.8058 84.2433 28.6041C84.3643 29.3388 84.4896 29.9698 84.4896 30.6809L84.548 38.0446C84.548 39.162 84.5978 40.1228 84.5978 40.9603C84.7275 41.8561 84.7275 42.4601 84.8442 42.8156L85.2116 43.8336H95.3028L94.998 42.7476C94.6997 41.601 94.5182 40.4242 94.4556 39.162ZM84.0098 16.4789C83.1734 17.858 81.9697 18.6264 80.4869 18.8532H76.1253L76.0563 7.46088H79.5361C79.8386 7.46088 80.1779 7.52042 80.4869 7.52042C82.7563 7.6997 84.1222 8.72329 84.5481 10.5051C85.1317 12.8847 84.9694 14.9217 84.0098 16.4789Z" fill="#003366"/>
<path fill-rule="evenodd" clip-rule="evenodd" d="M50.8122 31.5205C50.8122 33.508 50.5703 34.9257 49.9045 35.7665C49.2519 36.604 48.1754 37.034 46.6257 37.034C44.4668 37.034 43.1721 36.0638 42.6792 34.2655C42.6382 33.9661 42.5603 33.508 42.5021 32.9049C42.3875 32.2943 42.4545 31.8859 42.4545 31.5205V0H32.3719V29.85C32.3719 31.886 32.4131 33.737 32.8993 35.466C33.5456 38.1645 34.9784 40.2945 37.2369 41.737C39.5302 43.1776 42.3875 43.946 45.8995 43.946C48.7807 43.946 51.0434 43.7192 52.6039 43.2218C54.2054 42.8135 55.6988 41.9641 57.0692 40.8336C58.433 39.7109 59.4683 38.2703 60.067 36.538C60.6592 34.8016 60.9465 32.6035 61.0072 29.7938V0H50.931L50.8122 31.5205Z" fill="#003366"/>
<path fill-rule="evenodd" clip-rule="evenodd" d="M24.1633 2.13886C22.19 0.764237 19.3998 0.0606689 15.7623 0.0606689H0V43.8336H10.1364V26.7583H15.1421C20.301 26.7583 24.1093 25.1404 26.5537 21.7894C29.0112 18.4653 29.5384 14.094 28.2287 8.82907C27.4616 5.7211 26.0803 3.53381 24.1633 2.13886ZM17.7809 17.0149C16.9468 18.515 15.637 19.2877 13.9512 19.4054H9.18116V7.40268H13.9512C14.9843 7.52042 15.9351 7.83158 16.7111 8.43025C17.4956 9.14246 18.023 9.96487 18.3147 11.04C18.92 13.3807 18.7341 15.3433 17.7809 17.0149Z" fill="#003366"/>
<path fill-rule="evenodd" clip-rule="evenodd" d="M174.119 0.173096L162.498 44H172.991L179.453 14.9164L186.136 44H196.579L185.183 0.173096H174.119Z" fill="#003366"/>
</g>
<defs>
<clipPath id="clip0_134_80">
<rect width="369.272" height="44" fill="#003366"/>
</clipPath>
</defs>
</svg>
